<svg width="25" height="22" viewBox="0 0 25 22" fill="none" xmlns="http://www.w3.org/2000/svg">
<path d="M16.9998 17.6787C17.5171 17.4748 18.0185 17.2326 18.4998 16.954V20.7499C18.4998 20.9488 18.4207 21.1396 18.2801 21.2803C18.1394 21.4209 17.9487 21.4999 17.7498 21.4999C17.5509 21.4999 17.3601 21.4209 17.2194 21.2803C17.0788 21.1396 16.9998 20.9488 16.9998 20.7499V17.6787ZM18.1023 9.38837L12.8523 6.58806C12.6771 6.49859 12.4738 6.48151 12.2862 6.5405C12.0985 6.59949 11.9416 6.72983 11.8491 6.90343C11.7567 7.07703 11.7361 7.28 11.7919 7.46862C11.8476 7.65723 11.9753 7.81639 12.1473 7.91181L16.531 10.2499L18.1248 9.40056L18.1023 9.38837ZM24.1023 6.58806L12.8523 0.588061C12.7438 0.530281 12.6227 0.500061 12.4998 0.500061C12.3768 0.500061 12.2558 0.530281 12.1473 0.588061L0.897266 6.58806C0.77727 6.65201 0.676916 6.74738 0.606941 6.86396C0.536965 6.98055 0.5 7.11396 0.5 7.24994C0.5 7.38591 0.536965 7.51932 0.606941 7.63591C0.676916 7.75249 0.77727 7.84786 0.897266 7.91181L3.49977 9.30025V13.8396C3.49899 14.208 3.63457 14.5637 3.88039 14.8381C5.10852 16.2059 7.86008 18.4999 12.4998 18.4999C14.0382 18.5127 15.565 18.234 16.9998 17.6787V10.5002L16.531 10.2499L12.4998 12.3996L4.60883 8.18744L2.84352 7.24994L12.4998 2.10025L22.156 7.24994L20.3954 8.18744H20.3898L18.1248 9.40056C18.2388 9.4664 18.3335 9.56111 18.3993 9.67515C18.4652 9.7892 18.4998 9.91857 18.4998 10.0502V16.954C19.4778 16.3894 20.3616 15.6755 21.1191 14.8381C21.365 14.5637 21.5005 14.208 21.4998 13.8396V9.30025L24.1023 7.91181C24.2223 7.84786 24.3226 7.75249 24.3926 7.63591C24.4626 7.51932 24.4995 7.38591 24.4995 7.24994C24.4995 7.11396 24.4626 6.98055 24.3926 6.86396C24.3226 6.74738 24.2223 6.65201 24.1023 6.58806Z" fill="black"/>
</svg>
