<svg width="48" height="48" viewBox="0 0 48 48" fill="none" xmlns="http://www.w3.org/2000/svg">
<path d="M24.0009 0.959961C11.2761 0.959961 0.960938 11.2752 0.960938 24C0.960938 36.7248 11.2761 47.04 24.0009 47.04C36.7257 47.04 47.0409 36.7248 47.0409 24C47.0409 11.2752 36.7257 0.959961 24.0009 0.959961ZM18.3609 33.5496H13.6953V18.5352H18.3609V33.5496ZM15.9993 16.692C14.5257 16.692 13.5729 15.648 13.5729 14.3568C13.5729 13.0392 14.5545 12.0264 16.0593 12.0264C17.5641 12.0264 18.4857 13.0392 18.5145 14.3568C18.5145 15.648 17.5641 16.692 15.9993 16.692ZM35.4009 33.5496H30.7353V25.2288C30.7353 23.292 30.0585 21.9768 28.3713 21.9768C27.0825 21.9768 26.3169 22.8672 25.9785 23.724C25.8537 24.0288 25.8225 24.4608 25.8225 24.8904V33.5472H21.1545V23.3232C21.1545 21.4488 21.0945 19.8816 21.0321 18.5328H25.0857L25.2993 20.6184H25.3929C26.0073 19.6392 27.5121 18.1944 30.0297 18.1944C33.0993 18.1944 35.4009 20.2512 35.4009 24.672V33.5496Z" fill="#66CC98"/>
</svg>
