<svg width="99" height="98" viewBox="0 0 99 98" fill="none" xmlns="http://www.w3.org/2000/svg">
<path d="M49.5 0.25C39.8582 0.25 30.4329 3.10914 22.416 8.46586C14.3991 13.8226 8.15067 21.4363 4.46089 30.3442C0.771123 39.2521 -0.19429 49.0541 1.68674 58.5107C3.56777 67.9672 8.21076 76.6536 15.0286 83.4715C21.8464 90.2893 30.5328 94.9322 39.9894 96.8133C49.4459 98.6943 59.2479 97.7289 68.1558 94.0391C77.0637 90.3493 84.6774 84.1009 90.0342 76.084C95.3909 68.0671 98.25 58.6418 98.25 49C98.2339 36.0756 93.0926 23.6853 83.9537 14.5464C74.8148 5.40745 62.4244 0.266125 49.5 0.25ZM66.5813 52.1219L44.0813 67.1219C43.4642 67.5309 42.7404 67.7493 42 67.75C41.0055 67.75 40.0516 67.3549 39.3484 66.6516C38.6451 65.9484 38.25 64.9946 38.25 64V34C38.2496 33.3209 38.4335 32.6545 38.7823 32.0718C39.131 31.4891 39.6314 31.012 40.2301 30.6915C40.8287 30.371 41.5032 30.2191 42.1815 30.252C42.8598 30.2848 43.5164 30.5012 44.0813 30.8781L66.5813 45.8781C67.0956 46.2204 67.5175 46.6845 67.8092 47.2292C68.101 47.7738 68.2537 48.3821 68.2537 49C68.2537 49.6179 68.101 50.2262 67.8092 50.7708C67.5175 51.3154 67.0956 51.7796 66.5813 52.1219Z" fill="white"/>
</svg>
